<svg xmlns="http://www.w3.org/2000/svg" xmlns:xlink="http://www.w3.org/1999/xlink" width="1366" zoomAndPan="magnify" viewBox="0 0 1024.5 576" height="768" preserveAspectRatio="xMidYMid meet" version="1.0"><defs><g/><clipPath id="66a73c068f"><path d="M 0.171875 0.964844 L 140 0.964844 L 140 196.710938 L 0.171875 196.710938 Z M 0.171875 0.964844 " clip-rule="nonzero"/></clipPath><clipPath id="dd918ab2d0"><path d="M 0.171875 1 L 139.78125 1 L 139.78125 196.710938 L 0.171875 196.710938 Z M 0.171875 1 " clip-rule="nonzero"/></clipPath><clipPath id="3798564fab"><rect x="0" width="140" y="0" height="197"/></clipPath><clipPath id="857259798b"><rect x="0" width="907" y="0" height="197"/></clipPath></defs><g transform="matrix(1, 0, 0, 1, 61, 193)"><g clip-path="url(#857259798b)"><g fill="#7ed957" fill-opacity="1"><g transform="translate(188.807113, 139.854488)"><g><path d="M 52.75 -110.375 L 39.4375 -110.375 L 39.4375 -20.046875 L 55.4375 -20.046875 C 63.414062 -20.046875 70.578125 -21.898438 76.921875 -25.609375 C 83.273438 -29.316406 88.304688 -34.539062 92.015625 -41.28125 C 95.722656 -48.019531 97.578125 -55.941406 97.578125 -65.046875 C 97.578125 -74.484375 95.582031 -82.597656 91.59375 -89.390625 C 87.601562 -96.191406 82.238281 -101.390625 75.5 -104.984375 C 68.757812 -108.578125 61.175781 -110.375 52.75 -110.375 Z M 52.75 0 L 23.765625 0 C 21.960938 0 20.359375 -0.703125 18.953125 -2.109375 C 17.554688 -3.515625 16.859375 -5.113281 16.859375 -6.90625 L 16.859375 -123.359375 C 16.859375 -125.265625 17.554688 -126.921875 18.953125 -128.328125 C 20.359375 -129.734375 21.960938 -130.4375 23.765625 -130.4375 L 52.234375 -130.4375 C 61.335938 -130.4375 69.960938 -129.003906 78.109375 -126.140625 C 86.253906 -123.273438 93.5 -119.0625 99.84375 -113.5 C 106.1875 -107.9375 111.179688 -101.140625 114.828125 -93.109375 C 118.484375 -85.078125 120.3125 -75.890625 120.3125 -65.546875 C 120.3125 -55.328125 118.515625 -46.171875 114.921875 -38.078125 C 111.328125 -29.992188 106.382812 -23.113281 100.09375 -17.4375 C 93.800781 -11.769531 86.609375 -7.445312 78.515625 -4.46875 C 70.429688 -1.488281 61.84375 0 52.75 0 Z M 52.75 0 "/></g></g></g><g fill="#7ed957" fill-opacity="1"><g transform="translate(317.172029, 139.854488)"><g><path d="M 23.765625 1.015625 C 20.722656 1.015625 18.132812 -0.0507812 16 -2.1875 C 13.875 -4.320312 12.8125 -6.90625 12.8125 -9.9375 L 12.8125 -79.546875 C 12.8125 -82.578125 13.875 -85.160156 16 -87.296875 C 18.132812 -89.429688 20.664062 -90.5 23.59375 -90.5 C 26.507812 -90.5 29.035156 -89.539062 31.171875 -87.625 C 33.304688 -85.71875 34.429688 -83.300781 34.546875 -80.375 L 34.875 -74.484375 C 35.894531 -77.066406 37.273438 -79.566406 39.015625 -81.984375 C 40.753906 -84.398438 42.800781 -86.394531 45.15625 -87.96875 C 47.519531 -89.539062 50.050781 -90.328125 52.75 -90.328125 C 55.332031 -90.328125 57.660156 -89.507812 59.734375 -87.875 C 61.816406 -86.25 62.859375 -83.976562 62.859375 -81.0625 C 62.859375 -79.257812 62.460938 -77.257812 61.671875 -75.0625 C 60.890625 -72.875 59.035156 -71.78125 56.109375 -71.78125 C 50.492188 -71.78125 46.140625 -70.347656 43.046875 -67.484375 C 39.960938 -64.617188 37.828125 -60.882812 36.640625 -56.28125 C 35.460938 -51.675781 34.875 -46.734375 34.875 -41.453125 L 34.875 -9.9375 C 34.875 -6.90625 33.804688 -4.320312 31.671875 -2.1875 C 29.546875 -0.0507812 26.910156 1.015625 23.765625 1.015625 Z M 23.765625 1.015625 "/></g></g></g><g fill="#7ed957" fill-opacity="1"><g transform="translate(378.153451, 139.854488)"><g><path d="M 53.078125 2.015625 C 46.679688 2.015625 40.644531 0.835938 34.96875 -1.515625 C 29.289062 -3.878906 24.257812 -7.164062 19.875 -11.375 C 15.5 -15.582031 12.046875 -20.523438 9.515625 -26.203125 C 6.992188 -31.878906 5.734375 -38.085938 5.734375 -44.828125 C 5.734375 -51.453125 7.023438 -57.597656 9.609375 -63.265625 C 12.191406 -68.941406 15.703125 -73.882812 20.140625 -78.09375 C 24.578125 -82.3125 29.660156 -85.597656 35.390625 -87.953125 C 41.117188 -90.316406 47.070312 -91.5 53.25 -91.5 C 62.351562 -91.5 70.5 -89.445312 77.6875 -85.34375 C 84.875 -81.25 90.546875 -75.691406 94.703125 -68.671875 C 98.859375 -61.648438 100.9375 -53.703125 100.9375 -44.828125 C 100.9375 -35.835938 98.859375 -27.800781 94.703125 -20.71875 C 90.546875 -13.644531 84.875 -8.085938 77.6875 -4.046875 C 70.5 -0.00390625 62.296875 2.015625 53.078125 2.015625 Z M 79.03125 -44.65625 C 79.03125 -49.488281 77.988281 -53.984375 75.90625 -58.140625 C 73.832031 -62.296875 70.882812 -65.632812 67.0625 -68.15625 C 63.25 -70.6875 58.703125 -71.953125 53.421875 -71.953125 C 48.140625 -71.953125 43.5625 -70.660156 39.6875 -68.078125 C 35.8125 -65.492188 32.832031 -62.148438 30.75 -58.046875 C 28.675781 -53.953125 27.640625 -49.488281 27.640625 -44.65625 C 27.640625 -39.820312 28.675781 -35.351562 30.75 -31.25 C 32.832031 -27.15625 35.8125 -23.84375 39.6875 -21.3125 C 43.5625 -18.789062 48.140625 -17.53125 53.421875 -17.53125 C 58.703125 -17.53125 63.25 -18.789062 67.0625 -21.3125 C 70.882812 -23.84375 73.832031 -27.15625 75.90625 -31.25 C 77.988281 -35.351562 79.03125 -39.820312 79.03125 -44.65625 Z M 79.03125 -44.65625 "/></g></g></g><g fill="#7ed957" fill-opacity="1"><g transform="translate(484.787286, 139.854488)"><g><path d="M 53.078125 2.015625 C 46.679688 2.015625 40.644531 0.835938 34.96875 -1.515625 C 29.289062 -3.878906 24.257812 -7.164062 19.875 -11.375 C 15.5 -15.582031 12.046875 -20.523438 9.515625 -26.203125 C 6.992188 -31.878906 5.734375 -38.085938 5.734375 -44.828125 C 5.734375 -51.453125 7.023438 -57.597656 9.609375 -63.265625 C 12.191406 -68.941406 15.703125 -73.882812 20.140625 -78.09375 C 24.578125 -82.3125 29.660156 -85.597656 35.390625 -87.953125 C 41.117188 -90.316406 47.070312 -91.5 53.25 -91.5 C 62.351562 -91.5 70.5 -89.445312 77.6875 -85.34375 C 84.875 -81.25 90.546875 -75.691406 94.703125 -68.671875 C 98.859375 -61.648438 100.9375 -53.703125 100.9375 -44.828125 C 100.9375 -35.835938 98.859375 -27.800781 94.703125 -20.71875 C 90.546875 -13.644531 84.875 -8.085938 77.6875 -4.046875 C 70.5 -0.00390625 62.296875 2.015625 53.078125 2.015625 Z M 79.03125 -44.65625 C 79.03125 -49.488281 77.988281 -53.984375 75.90625 -58.140625 C 73.832031 -62.296875 70.882812 -65.632812 67.0625 -68.15625 C 63.25 -70.6875 58.703125 -71.953125 53.421875 -71.953125 C 48.140625 -71.953125 43.5625 -70.660156 39.6875 -68.078125 C 35.8125 -65.492188 32.832031 -62.148438 30.75 -58.046875 C 28.675781 -53.953125 27.640625 -49.488281 27.640625 -44.65625 C 27.640625 -39.820312 28.675781 -35.351562 30.75 -31.25 C 32.832031 -27.15625 35.8125 -23.84375 39.6875 -21.3125 C 43.5625 -18.789062 48.140625 -17.53125 53.421875 -17.53125 C 58.703125 -17.53125 63.25 -18.789062 67.0625 -21.3125 C 70.882812 -23.84375 73.832031 -27.15625 75.90625 -31.25 C 77.988281 -35.351562 79.03125 -39.820312 79.03125 -44.65625 Z M 79.03125 -44.65625 "/></g></g></g><g fill="#7ed957" fill-opacity="1"><g transform="translate(591.42112, 139.854488)"><g><path d="M 53.078125 2.015625 C 46.679688 2.015625 40.644531 0.835938 34.96875 -1.515625 C 29.289062 -3.878906 24.257812 -7.164062 19.875 -11.375 C 15.5 -15.582031 12.046875 -20.523438 9.515625 -26.203125 C 6.992188 -31.878906 5.734375 -38.085938 5.734375 -44.828125 C 5.734375 -51.453125 7.023438 -57.597656 9.609375 -63.265625 C 12.191406 -68.941406 15.703125 -73.882812 20.140625 -78.09375 C 24.578125 -82.3125 29.660156 -85.597656 35.390625 -87.953125 C 41.117188 -90.316406 47.070312 -91.5 53.25 -91.5 C 62.351562 -91.5 70.5 -89.445312 77.6875 -85.34375 C 84.875 -81.25 90.546875 -75.691406 94.703125 -68.671875 C 98.859375 -61.648438 100.9375 -53.703125 100.9375 -44.828125 C 100.9375 -35.835938 98.859375 -27.800781 94.703125 -20.71875 C 90.546875 -13.644531 84.875 -8.085938 77.6875 -4.046875 C 70.5 -0.00390625 62.296875 2.015625 53.078125 2.015625 Z M 79.03125 -44.65625 C 79.03125 -49.488281 77.988281 -53.984375 75.90625 -58.140625 C 73.832031 -62.296875 70.882812 -65.632812 67.0625 -68.15625 C 63.25 -70.6875 58.703125 -71.953125 53.421875 -71.953125 C 48.140625 -71.953125 43.5625 -70.660156 39.6875 -68.078125 C 35.8125 -65.492188 32.832031 -62.148438 30.75 -58.046875 C 28.675781 -53.953125 27.640625 -49.488281 27.640625 -44.65625 C 27.640625 -39.820312 28.675781 -35.351562 30.75 -31.25 C 32.832031 -27.15625 35.8125 -23.84375 39.6875 -21.3125 C 43.5625 -18.789062 48.140625 -17.53125 53.421875 -17.53125 C 58.703125 -17.53125 63.25 -18.789062 67.0625 -21.3125 C 70.882812 -23.84375 73.832031 -27.15625 75.90625 -31.25 C 77.988281 -35.351562 79.03125 -39.820312 79.03125 -44.65625 Z M 79.03125 -44.65625 "/></g></g></g><g fill="#7ed957" fill-opacity="1"><g transform="translate(698.054955, 139.854488)"><g><path d="M 59.3125 -17.359375 C 64.707031 -17.472656 69.257812 -18.789062 72.96875 -21.3125 C 76.675781 -23.84375 79.484375 -27.1875 81.390625 -31.34375 C 83.304688 -35.5 84.265625 -39.9375 84.265625 -44.65625 C 84.265625 -49.375 83.304688 -53.8125 81.390625 -57.96875 C 79.484375 -62.125 76.757812 -65.519531 73.21875 -68.15625 C 69.675781 -70.800781 65.378906 -72.125 60.328125 -72.125 C 55.722656 -72.125 51.507812 -70.914062 47.6875 -68.5 C 43.863281 -66.082031 40.828125 -62.796875 38.578125 -58.640625 C 36.335938 -54.484375 35.21875 -49.707031 35.21875 -44.3125 C 35.21875 -39.707031 36.144531 -35.351562 38 -31.25 C 39.851562 -27.15625 42.578125 -23.84375 46.171875 -21.3125 C 49.765625 -18.789062 54.144531 -17.472656 59.3125 -17.359375 Z M 25.78125 37.078125 C 22.863281 37.078125 20.335938 36.007812 18.203125 33.875 C 16.066406 31.738281 15 29.207031 15 26.28125 L 15 -80.890625 C 15 -83.585938 15.925781 -85.863281 17.78125 -87.71875 C 19.632812 -89.570312 21.910156 -90.5 24.609375 -90.5 C 27.078125 -90.5 29.238281 -89.65625 31.09375 -87.96875 C 32.945312 -86.28125 33.929688 -84.203125 34.046875 -81.734375 L 34.375 -76.84375 C 37.96875 -80.882812 42.265625 -84.335938 47.265625 -87.203125 C 52.265625 -90.066406 57.851562 -91.5 64.03125 -91.5 C 69.539062 -91.5 74.796875 -90.316406 79.796875 -87.953125 C 84.796875 -85.597656 89.285156 -82.285156 93.265625 -78.015625 C 97.253906 -73.753906 100.398438 -68.703125 102.703125 -62.859375 C 105.015625 -57.015625 106.171875 -50.554688 106.171875 -43.484375 C 106.171875 -34.265625 104.203125 -26.226562 100.265625 -19.375 C 96.335938 -12.519531 91.113281 -7.238281 84.59375 -3.53125 C 78.082031 0.164062 71.003906 2.015625 63.359375 2.015625 C 57.515625 2.015625 52.484375 0.976562 48.265625 -1.09375 C 44.054688 -3.175781 40.15625 -6.125 36.5625 -9.9375 L 36.5625 26.28125 C 36.5625 29.207031 35.492188 31.738281 33.359375 33.875 C 31.234375 36.007812 28.707031 37.078125 25.78125 37.078125 Z M 25.78125 37.078125 "/></g></g></g><g fill="#7ed957" fill-opacity="1"><g transform="translate(807.045821, 139.854488)"><g><path d="M 72.125 -83.25 C 73.925781 -87.40625 77.070312 -89.484375 81.5625 -89.484375 C 84.476562 -89.484375 86.890625 -88.441406 88.796875 -86.359375 C 90.710938 -84.285156 91.671875 -81.898438 91.671875 -79.203125 C 91.671875 -78.523438 91.613281 -77.820312 91.5 -77.09375 C 91.382812 -76.363281 91.160156 -75.660156 90.828125 -74.984375 L 50.390625 14.328125 C 46.679688 22.523438 42.1875 28.53125 36.90625 32.34375 C 31.625 36.164062 25.953125 38.078125 19.890625 38.078125 C 17.972656 38.078125 15.523438 37.878906 12.546875 37.484375 C 9.578125 37.097656 6.9375 36.175781 4.625 34.71875 C 2.320312 33.257812 1.171875 30.898438 1.171875 27.640625 C 1.171875 24.828125 2.125 22.578125 4.03125 20.890625 C 5.945312 19.210938 8.085938 18.375 10.453125 18.375 C 11.460938 18.375 12.472656 18.484375 13.484375 18.703125 C 14.492188 18.929688 15.617188 19.046875 16.859375 19.046875 C 20.453125 19.046875 23.34375 18.226562 25.53125 16.59375 C 27.71875 14.96875 29.597656 12.414062 31.171875 8.9375 L 35.5625 -0.671875 L 6.90625 -75.328125 C 6.457031 -76.335938 6.234375 -77.570312 6.234375 -79.03125 C 6.234375 -81.726562 7.21875 -84.144531 9.1875 -86.28125 C 11.15625 -88.414062 13.65625 -89.484375 16.6875 -89.484375 C 18.925781 -89.484375 20.914062 -88.863281 22.65625 -87.625 C 24.40625 -86.394531 25.671875 -84.710938 26.453125 -82.578125 L 47.1875 -25.109375 Z M 72.125 -83.25 "/></g></g></g><g clip-path="url(#66a73c068f)"><g transform="matrix(1, 0, 0, 1, 0, -0.000000000000056843)"><g clip-path="url(#3798564fab)"><g clip-path="url(#dd918ab2d0)"><path fill="#7ed957" d="M 67.175781 196.3125 C 65.6875 195.757812 64.433594 195.148438 64.433594 194.976562 C 64.433594 194.867188 63.605469 193.855469 62.589844 192.71875 C 61.578125 191.585938 60.609375 190.363281 60.441406 190.003906 C 60.277344 189.644531 59.636719 188.609375 59.023438 187.703125 C 58.410156 186.796875 57.910156 185.957031 57.910156 185.835938 C 57.910156 185.714844 57.371094 184.953125 56.710938 184.144531 C 56.050781 183.335938 55.011719 181.648438 54.398438 180.398438 C 53.785156 179.152344 52.855469 177.570312 52.332031 176.886719 C 51.8125 176.203125 51.382812 175.566406 51.382812 175.46875 C 51.382812 175.371094 51.160156 175.046875 50.890625 174.753906 C 50.617188 174.457031 49.898438 173.273438 49.292969 172.125 C 48.683594 170.976562 47.871094 169.625 47.480469 169.125 C 47.089844 168.621094 46.265625 167.269531 45.644531 166.121094 C 45.023438 164.972656 44.296875 163.722656 44.035156 163.339844 C 43.769531 162.960938 43.554688 162.53125 43.554688 162.386719 C 43.554688 162.242188 43.023438 161.320312 42.375 160.339844 C 38.652344 154.691406 38.675781 150.636719 42.449219 147.015625 C 46.542969 143.078125 51.167969 142.796875 55.003906 146.25 C 56.242188 147.363281 59.738281 152.257812 59.738281 152.878906 C 59.738281 153.277344 60.253906 154.042969 61.164062 155 C 61.964844 155.835938 62.882812 157.152344 63.25 157.984375 C 63.613281 158.800781 64.292969 159.851562 64.765625 160.316406 C 65.238281 160.78125 66.199219 161.953125 66.90625 162.921875 C 69.078125 165.90625 70.125 165.769531 72.851562 162.148438 C 75.230469 158.988281 78.949219 153.546875 79.925781 151.792969 C 80.335938 151.0625 80.914062 150.195312 81.214844 149.871094 C 81.863281 149.167969 82.613281 147.957031 83.871094 145.566406 C 84.957031 143.511719 86.511719 141.03125 86.851562 140.824219 C 86.980469 140.742188 87.402344 140.058594 87.792969 139.304688 C 88.179688 138.550781 88.839844 137.5 89.257812 136.96875 C 89.671875 136.4375 90.015625 135.882812 90.015625 135.734375 C 90.015625 135.445312 91.179688 133.625 92.871094 131.277344 C 93.4375 130.488281 93.910156 129.703125 93.917969 129.535156 C 93.925781 129.367188 94.195312 128.894531 94.515625 128.488281 C 95.160156 127.675781 95.527344 127.113281 96.179688 125.925781 C 96.417969 125.496094 96.949219 124.757812 97.359375 124.285156 C 97.769531 123.8125 98.105469 123.285156 98.105469 123.109375 C 98.105469 122.761719 100.726562 118.597656 101.359375 117.941406 C 101.578125 117.714844 101.761719 117.472656 101.761719 117.402344 C 101.761719 117.332031 102.40625 116.292969 103.195312 115.09375 C 103.984375 113.894531 104.632812 112.769531 104.632812 112.597656 C 104.632812 112.429688 104.816406 112.132812 105.042969 111.945312 C 105.269531 111.757812 105.679688 111.1875 105.960938 110.675781 C 106.242188 110.164062 106.765625 109.273438 107.125 108.699219 C 107.484375 108.125 108.007812 107.183594 108.292969 106.609375 C 108.578125 106.035156 109.277344 104.921875 109.851562 104.132812 C 110.425781 103.34375 110.894531 102.496094 110.894531 102.253906 C 110.894531 102.011719 111.023438 101.734375 111.183594 101.636719 C 111.339844 101.539062 111.636719 101.089844 111.839844 100.640625 C 112.046875 100.191406 112.609375 99.121094 113.09375 98.257812 C 115.105469 94.683594 117.941406 88.675781 118.386719 87.035156 C 118.546875 86.460938 118.921875 85.160156 119.222656 84.144531 C 120.203125 80.847656 120.472656 70.496094 119.753906 63.691406 C 119.246094 58.839844 116.949219 51.605469 115.214844 49.378906 C 114.707031 48.722656 114.289062 48.019531 114.289062 47.8125 C 114.289062 47.46875 113.746094 46.574219 112.15625 44.308594 C 111.820312 43.835938 111.476562 43.386719 111.390625 43.316406 C 111.121094 43.09375 108.46875 39.863281 107.5 38.578125 C 106.5 37.25 102.957031 33.898438 101.5 32.898438 C 100.996094 32.550781 100.234375 31.945312 99.800781 31.542969 C 98.382812 30.226562 92.765625 26.355469 92.269531 26.351562 C 92 26.351562 91.378906 26 90.894531 25.570312 C 90.402344 25.140625 89.683594 24.726562 89.292969 24.648438 C 88.898438 24.566406 86.992188 23.992188 85.054688 23.367188 C 78.269531 21.175781 67.769531 20.058594 64.171875 21.144531 C 63.671875 21.292969 62.203125 21.511719 60.910156 21.625 C 58.328125 21.851562 53.265625 23.117188 50.789062 24.160156 C 39.957031 28.722656 32.195312 26.25 32.664062 18.386719 C 33 12.746094 36.496094 9.082031 44.859375 5.601562 C 45.792969 5.214844 46.886719 4.730469 47.292969 4.53125 C 47.703125 4.328125 48.171875 4.164062 48.339844 4.167969 C 48.507812 4.167969 49.40625 3.941406 50.339844 3.65625 C 51.273438 3.375 52.660156 2.957031 53.417969 2.730469 C 54.710938 2.34375 57.941406 1.832031 60 1.6875 C 68.847656 1.0625 70.792969 1.046875 75.753906 1.554688 C 80.132812 2 81.582031 2.277344 85.1875 3.359375 C 85.617188 3.488281 86.613281 3.730469 87.40625 3.898438 C 88.195312 4.066406 89.558594 4.429688 90.441406 4.707031 C 91.320312 4.980469 92.238281 5.207031 92.480469 5.207031 C 92.722656 5.207031 93.414062 5.535156 94.011719 5.933594 C 94.613281 6.332031 95.398438 6.785156 95.757812 6.941406 C 97.511719 7.707031 102.167969 10 102.28125 10.152344 C 102.355469 10.25 103.183594 10.734375 104.125 11.226562 C 105.066406 11.71875 106.300781 12.453125 106.867188 12.855469 C 107.429688 13.257812 109.140625 14.398438 110.667969 15.390625 C 112.195312 16.378906 114.300781 17.988281 115.351562 18.964844 C 118.019531 21.445312 122.753906 26.3125 123.476562 27.320312 C 125.585938 30.273438 126.296875 31.328125 126.296875 31.515625 C 126.296875 31.632812 126.941406 32.511719 127.730469 33.46875 C 128.519531 34.425781 129.167969 35.328125 129.167969 35.472656 C 129.167969 35.617188 129.847656 36.882812 130.679688 38.285156 C 132.265625 40.949219 132.820312 42.0625 133.980469 44.882812 C 134.367188 45.816406 134.847656 46.949219 135.054688 47.402344 C 135.261719 47.851562 135.429688 48.304688 135.429688 48.40625 C 135.429688 48.507812 135.78125 49.320312 136.207031 50.214844 C 137.214844 52.328125 138.246094 56.78125 139.109375 62.761719 C 139.605469 66.171875 139.671875 77.203125 139.214844 80.117188 C 138.511719 84.632812 138.425781 85.054688 137.277344 89.777344 C 136.761719 91.890625 136.585938 92.449219 135.386719 95.777344 C 135.101562 96.570312 134.816406 97.488281 134.75 97.820312 C 134.589844 98.632812 132.378906 102.820312 131.753906 103.496094 C 131.480469 103.792969 131.253906 104.203125 131.253906 104.410156 C 131.25 104.851562 128.644531 110.066406 127.671875 111.570312 C 126.839844 112.855469 125.996094 114.09375 125.714844 114.441406 C 125.066406 115.242188 124.144531 116.746094 123.308594 118.363281 C 122.789062 119.375 121.894531 120.816406 121.328125 121.566406 C 120.757812 122.320312 120.292969 123.035156 120.292969 123.160156 C 120.292969 123.28125 120.113281 123.53125 119.890625 123.714844 C 119.5 124.042969 116.855469 127.875 116.152344 129.128906 C 115.960938 129.480469 115.589844 129.976562 115.332031 130.234375 C 114.921875 130.644531 114.429688 131.410156 112.015625 135.410156 C 111.699219 135.9375 111.316406 136.542969 111.167969 136.757812 C 111.019531 136.972656 110.53125 137.738281 110.078125 138.453125 C 109.625 139.171875 108.921875 140.25 108.511719 140.847656 C 108.101562 141.445312 107.761719 142.003906 107.761719 142.09375 C 107.761719 142.25 107.5 142.675781 105.023438 146.546875 C 104.289062 147.695312 103.464844 149.164062 103.199219 149.808594 C 102.929688 150.453125 102.496094 151.226562 102.234375 151.523438 C 101.972656 151.820312 101.761719 152.152344 101.761719 152.261719 C 101.761719 152.375 101.371094 152.921875 100.894531 153.480469 C 100.414062 154.035156 99.695312 155.144531 99.292969 155.941406 C 98.890625 156.738281 98.449219 157.457031 98.316406 157.539062 C 98.183594 157.621094 97.785156 158.296875 97.433594 159.042969 C 97.082031 159.789062 96.355469 160.949219 95.816406 161.617188 C 93.984375 163.90625 93.140625 165.136719 92.34375 166.671875 C 91.5625 168.1875 91.375 168.496094 89.949219 170.644531 C 89.554688 171.238281 89.230469 171.800781 89.230469 171.890625 C 89.230469 171.984375 88.703125 172.800781 88.058594 173.707031 C 87.410156 174.609375 86.882812 175.425781 86.882812 175.515625 C 86.882812 175.605469 86.425781 176.351562 85.863281 177.179688 C 85.300781 178.003906 84.65625 179.085938 84.429688 179.578125 C 84.199219 180.074219 83.25 181.886719 82.3125 183.609375 C 81.378906 185.332031 80.378906 187.210938 80.089844 187.785156 C 78.914062 190.128906 74.34375 195.265625 72.894531 195.871094 C 71.871094 196.296875 67.949219 196.601562 67.175781 196.3125 M 28.375 130.609375 C 24.964844 130.085938 24.179688 129.636719 22.019531 126.972656 C 20.976562 125.683594 19.542969 123.550781 19.542969 123.289062 C 19.542969 123.210938 19.1875 122.636719 18.757812 122.011719 C 18.328125 121.386719 17.976562 120.8125 17.976562 120.734375 C 17.976562 120.660156 17.609375 119.976562 17.160156 119.214844 C 16.710938 118.457031 15.875 116.953125 15.304688 115.878906 C 14.730469 114.800781 13.808594 113.246094 13.25 112.421875 C 12.691406 111.597656 12.234375 110.820312 12.234375 110.695312 C 12.234375 110.570312 12.011719 110.1875 11.742188 109.84375 C 11.117188 109.046875 10.558594 108.042969 8.855469 104.652344 C 8.097656 103.144531 7.132812 101.230469 6.714844 100.398438 C 5.753906 98.484375 2.769531 89.859375 2.09375 87.035156 C 1.957031 86.460938 1.601562 84.992188 1.308594 83.773438 C 0.136719 78.9375 -0.144531 64.804688 0.851562 60.804688 C 1.082031 59.871094 1.5 57.875 1.777344 56.367188 C 2.542969 52.179688 3.027344 50.195312 3.4375 49.53125 C 3.640625 49.199219 4.007812 48.195312 4.246094 47.304688 C 4.679688 45.699219 6.164062 42.15625 7.992188 38.355469 C 9.707031 34.785156 13.105469 30.910156 15.433594 29.863281 C 20.179688 27.734375 27.753906 30.773438 28.570312 35.136719 C 29.035156 37.613281 28.554688 40.726562 27.320312 43.183594 C 26.675781 44.476562 25.820312 46.238281 25.421875 47.101562 C 25.019531 47.960938 24.34375 49.371094 23.914062 50.230469 C 23.484375 51.09375 22.695312 53.039062 22.164062 54.554688 C 21.632812 56.070312 21.121094 57.4375 21.023438 57.59375 C 20.929688 57.746094 20.742188 58.621094 20.605469 59.535156 C 20.46875 60.449219 20.105469 61.839844 19.796875 62.628906 C 18.789062 65.21875 18.816406 73.234375 19.855469 80.117188 C 20.132812 81.949219 21.992188 87.722656 22.789062 89.230469 C 22.988281 89.601562 23.410156 90.550781 23.726562 91.34375 C 24.496094 93.246094 27.882812 100.027344 28.835938 101.570312 C 32.820312 108.023438 34.777344 110.359375 36.769531 111.03125 C 38.757812 111.699219 58.574219 111.390625 59.929688 110.671875 C 61.25 109.96875 63.652344 107.566406 63.652344 106.949219 C 63.652344 106.878906 64.296875 105.855469 65.085938 104.675781 C 65.878906 103.496094 66.523438 102.421875 66.523438 102.289062 C 66.523438 102.15625 67.050781 101.199219 67.699219 100.160156 C 68.34375 99.121094 68.871094 98.136719 68.871094 97.972656 C 68.871094 97.804688 69.0625 97.511719 69.292969 97.320312 C 71.144531 95.785156 72.429688 92.199219 72.183594 89.261719 C 71.671875 83.132812 69.066406 81.660156 58.5625 81.550781 C 51.984375 81.484375 45.898438 80.921875 44.617188 80.257812 C 37.421875 76.539062 36.085938 68 40.964844 56.976562 C 41.433594 55.921875 42.039062 54.996094 43.710938 52.773438 C 44.792969 51.332031 52.648438 43.835938 53.074219 43.835938 C 53.257812 43.835938 53.5625 43.652344 53.746094 43.429688 C 54.203125 42.878906 55.984375 42.03125 57.257812 41.757812 C 57.832031 41.632812 59.535156 41.097656 61.042969 40.566406 L 63.78125 39.597656 L 69.132812 39.5625 L 74.484375 39.53125 L 78.035156 40.644531 C 83.558594 42.382812 87.671875 44.832031 91.660156 48.757812 C 96.734375 53.753906 99.746094 59.816406 100.699219 66.9375 C 101.582031 73.554688 101.515625 75.9375 100.339844 79.988281 C 100.089844 80.847656 99.757812 82.023438 99.601562 82.597656 C 99.449219 83.171875 98.929688 84.496094 98.453125 85.539062 C 97.976562 86.585938 97.582031 87.597656 97.582031 87.792969 C 97.582031 87.988281 97.417969 88.28125 97.214844 88.449219 C 97.015625 88.617188 96.660156 89.132812 96.425781 89.59375 C 96.195312 90.050781 95.65625 91.015625 95.234375 91.734375 C 94.8125 92.453125 94.273438 93.449219 94.039062 93.953125 C 93.800781 94.453125 93.527344 94.925781 93.425781 94.996094 C 93.179688 95.171875 91.582031 97.53125 91.582031 97.71875 C 91.582031 98.082031 88.851562 102.765625 88.292969 103.363281 C 87.945312 103.730469 87.664062 104.140625 87.664062 104.28125 C 87.664062 104.417969 87.261719 105.132812 86.765625 105.867188 C 85.890625 107.164062 85.433594 107.972656 83.378906 111.832031 C 82.363281 113.742188 81.660156 114.878906 80.03125 117.25 C 79.492188 118.03125 79.050781 118.761719 79.050781 118.871094 C 79.050781 118.980469 78.527344 119.855469 77.890625 120.820312 C 77.25 121.78125 76.609375 122.875 76.46875 123.25 C 75.066406 126.929688 71.75 130.148438 68.871094 130.617188 C 66.5625 130.992188 30.839844 130.984375 28.375 130.609375 " fill-opacity="1" fill-rule="evenodd"/></g></g></g></g></g></g></svg>