<svg xmlns="http://www.w3.org/2000/svg" xmlns:xlink="http://www.w3.org/1999/xlink" width="1366" zoomAndPan="magnify" viewBox="0 0 1024.5 576" height="768" preserveAspectRatio="xMidYMid meet" version="1.0"><defs><g/><clipPath id="0bef6c8b72"><path d="M 192 30 L 908.527344 30 L 908.527344 200 L 192 200 Z M 192 30 " clip-rule="nonzero"/></clipPath><clipPath id="e8480a4711"><path d="M 620 41 L 711 41 L 711 169.757812 L 620 169.757812 Z M 620 41 " clip-rule="nonzero"/></clipPath><clipPath id="e66442cea0"><rect x="0" width="717" y="0" height="170"/></clipPath><clipPath id="b75b67d72d"><path d="M 0.570312 5.046875 L 153.003906 5.046875 L 153.003906 218.539062 L 0.570312 218.539062 Z M 0.570312 5.046875 " clip-rule="nonzero"/></clipPath><clipPath id="5940e9a498"><rect x="0" width="154" y="0" height="214"/></clipPath><clipPath id="79a1a450fb"><rect x="0" width="909" y="0" height="219"/></clipPath></defs><g transform="matrix(1, 0, 0, 1, 57, 177)"><g clip-path="url(#79a1a450fb)"><g clip-path="url(#0bef6c8b72)"><g transform="matrix(1, 0, 0, 1, 192, 30)"><g clip-path="url(#e66442cea0)"><g fill="#000000" fill-opacity="1"><g transform="translate(0.690327, 131.476807)"><g><path d="M 52.75 -110.390625 L 39.4375 -110.390625 L 39.4375 -20.0625 L 55.453125 -20.0625 C 63.429688 -20.0625 70.59375 -21.914062 76.9375 -25.625 C 83.289062 -29.332031 88.320312 -34.554688 92.03125 -41.296875 C 95.738281 -48.035156 97.59375 -55.957031 97.59375 -65.0625 C 97.59375 -74.5 95.597656 -82.613281 91.609375 -89.40625 C 87.617188 -96.207031 82.25 -101.40625 75.5 -105 C 68.757812 -108.59375 61.175781 -110.390625 52.75 -110.390625 Z M 52.75 0 L 23.765625 0 C 21.960938 0 20.359375 -0.703125 18.953125 -2.109375 C 17.554688 -3.515625 16.859375 -5.113281 16.859375 -6.90625 L 16.859375 -123.375 C 16.859375 -125.28125 17.554688 -126.9375 18.953125 -128.34375 C 20.359375 -129.75 21.960938 -130.453125 23.765625 -130.453125 L 52.25 -130.453125 C 61.351562 -130.453125 69.976562 -129.019531 78.125 -126.15625 C 86.269531 -123.289062 93.515625 -119.078125 99.859375 -113.515625 C 106.210938 -107.953125 111.210938 -101.15625 114.859375 -93.125 C 118.515625 -85.09375 120.34375 -75.90625 120.34375 -65.5625 C 120.34375 -55.34375 118.546875 -46.1875 114.953125 -38.09375 C 111.359375 -30 106.410156 -23.113281 100.109375 -17.4375 C 93.816406 -11.769531 86.625 -7.445312 78.53125 -4.46875 C 70.445312 -1.488281 61.851562 0 52.75 0 Z M 52.75 0 "/></g></g></g><g fill="#000000" fill-opacity="1"><g transform="translate(129.116993, 131.476807)"><g><path d="M 23.765625 1.015625 C 20.734375 1.015625 18.148438 -0.0507812 16.015625 -2.1875 C 13.878906 -4.320312 12.8125 -6.90625 12.8125 -9.9375 L 12.8125 -79.546875 C 12.8125 -82.585938 13.878906 -85.175781 16.015625 -87.3125 C 18.148438 -89.445312 20.675781 -90.515625 23.59375 -90.515625 C 26.519531 -90.515625 29.050781 -89.554688 31.1875 -87.640625 C 33.320312 -85.734375 34.441406 -83.316406 34.546875 -80.390625 L 34.890625 -74.5 C 35.898438 -77.082031 37.273438 -79.582031 39.015625 -82 C 40.753906 -84.414062 42.800781 -86.410156 45.15625 -87.984375 C 47.519531 -89.554688 50.050781 -90.34375 52.75 -90.34375 C 55.332031 -90.34375 57.664062 -89.523438 59.75 -87.890625 C 61.832031 -86.265625 62.875 -83.992188 62.875 -81.078125 C 62.875 -79.273438 62.476562 -77.273438 61.6875 -75.078125 C 60.90625 -72.890625 59.050781 -71.796875 56.125 -71.796875 C 50.507812 -71.796875 46.15625 -70.363281 43.0625 -67.5 C 39.96875 -64.632812 37.832031 -60.898438 36.65625 -56.296875 C 35.476562 -51.691406 34.890625 -46.75 34.890625 -41.46875 L 34.890625 -9.9375 C 34.890625 -6.90625 33.820312 -4.320312 31.6875 -2.1875 C 29.550781 -0.0507812 26.910156 1.015625 23.765625 1.015625 Z M 23.765625 1.015625 "/></g></g></g><g fill="#000000" fill-opacity="1"><g transform="translate(190.128035, 131.476807)"><g><path d="M 53.09375 2.015625 C 46.6875 2.015625 40.644531 0.835938 34.96875 -1.515625 C 29.300781 -3.878906 24.273438 -7.164062 19.890625 -11.375 C 15.503906 -15.59375 12.046875 -20.535156 9.515625 -26.203125 C 6.992188 -31.878906 5.734375 -38.085938 5.734375 -44.828125 C 5.734375 -51.460938 7.023438 -57.613281 9.609375 -63.28125 C 12.191406 -68.957031 15.703125 -73.898438 20.140625 -78.109375 C 24.578125 -82.328125 29.660156 -85.613281 35.390625 -87.96875 C 41.117188 -90.332031 47.078125 -91.515625 53.265625 -91.515625 C 62.359375 -91.515625 70.5 -89.460938 77.6875 -85.359375 C 84.882812 -81.265625 90.5625 -75.707031 94.71875 -68.6875 C 98.875 -61.664062 100.953125 -53.710938 100.953125 -44.828125 C 100.953125 -35.835938 98.875 -27.800781 94.71875 -20.71875 C 90.5625 -13.644531 84.882812 -8.085938 77.6875 -4.046875 C 70.5 -0.00390625 62.300781 2.015625 53.09375 2.015625 Z M 79.046875 -44.671875 C 79.046875 -49.492188 78.003906 -53.984375 75.921875 -58.140625 C 73.847656 -62.304688 70.898438 -65.648438 67.078125 -68.171875 C 63.253906 -70.703125 58.703125 -71.96875 53.421875 -71.96875 C 48.140625 -71.96875 43.5625 -70.675781 39.6875 -68.09375 C 35.8125 -65.507812 32.832031 -62.164062 30.75 -58.0625 C 28.675781 -53.957031 27.640625 -49.492188 27.640625 -44.671875 C 27.640625 -39.835938 28.675781 -35.367188 30.75 -31.265625 C 32.832031 -27.160156 35.8125 -23.84375 39.6875 -21.3125 C 43.5625 -18.789062 48.140625 -17.53125 53.421875 -17.53125 C 58.703125 -17.53125 63.253906 -18.789062 67.078125 -21.3125 C 70.898438 -23.84375 73.847656 -27.160156 75.921875 -31.265625 C 78.003906 -35.367188 79.046875 -39.835938 79.046875 -44.671875 Z M 79.046875 -44.671875 "/></g></g></g><g fill="#000000" fill-opacity="1"><g transform="translate(296.813183, 131.476807)"><g><path d="M 53.09375 2.015625 C 46.6875 2.015625 40.644531 0.835938 34.96875 -1.515625 C 29.300781 -3.878906 24.273438 -7.164062 19.890625 -11.375 C 15.503906 -15.59375 12.046875 -20.535156 9.515625 -26.203125 C 6.992188 -31.878906 5.734375 -38.085938 5.734375 -44.828125 C 5.734375 -51.460938 7.023438 -57.613281 9.609375 -63.28125 C 12.191406 -68.957031 15.703125 -73.898438 20.140625 -78.109375 C 24.578125 -82.328125 29.660156 -85.613281 35.390625 -87.96875 C 41.117188 -90.332031 47.078125 -91.515625 53.265625 -91.515625 C 62.359375 -91.515625 70.5 -89.460938 77.6875 -85.359375 C 84.882812 -81.265625 90.5625 -75.707031 94.71875 -68.6875 C 98.875 -61.664062 100.953125 -53.710938 100.953125 -44.828125 C 100.953125 -35.835938 98.875 -27.800781 94.71875 -20.71875 C 90.5625 -13.644531 84.882812 -8.085938 77.6875 -4.046875 C 70.5 -0.00390625 62.300781 2.015625 53.09375 2.015625 Z M 79.046875 -44.671875 C 79.046875 -49.492188 78.003906 -53.984375 75.921875 -58.140625 C 73.847656 -62.304688 70.898438 -65.648438 67.078125 -68.171875 C 63.253906 -70.703125 58.703125 -71.96875 53.421875 -71.96875 C 48.140625 -71.96875 43.5625 -70.675781 39.6875 -68.09375 C 35.8125 -65.507812 32.832031 -62.164062 30.75 -58.0625 C 28.675781 -53.957031 27.640625 -49.492188 27.640625 -44.671875 C 27.640625 -39.835938 28.675781 -35.367188 30.75 -31.265625 C 32.832031 -27.160156 35.8125 -23.84375 39.6875 -21.3125 C 43.5625 -18.789062 48.140625 -17.53125 53.421875 -17.53125 C 58.703125 -17.53125 63.253906 -18.789062 67.078125 -21.3125 C 70.898438 -23.84375 73.847656 -27.160156 75.921875 -31.265625 C 78.003906 -35.367188 79.046875 -39.835938 79.046875 -44.671875 Z M 79.046875 -44.671875 "/></g></g></g><g fill="#000000" fill-opacity="1"><g transform="translate(403.498355, 131.476807)"><g><path d="M 53.09375 2.015625 C 46.6875 2.015625 40.644531 0.835938 34.96875 -1.515625 C 29.300781 -3.878906 24.273438 -7.164062 19.890625 -11.375 C 15.503906 -15.59375 12.046875 -20.535156 9.515625 -26.203125 C 6.992188 -31.878906 5.734375 -38.085938 5.734375 -44.828125 C 5.734375 -51.460938 7.023438 -57.613281 9.609375 -63.28125 C 12.191406 -68.957031 15.703125 -73.898438 20.140625 -78.109375 C 24.578125 -82.328125 29.660156 -85.613281 35.390625 -87.96875 C 41.117188 -90.332031 47.078125 -91.515625 53.265625 -91.515625 C 62.359375 -91.515625 70.5 -89.460938 77.6875 -85.359375 C 84.882812 -81.265625 90.5625 -75.707031 94.71875 -68.6875 C 98.875 -61.664062 100.953125 -53.710938 100.953125 -44.828125 C 100.953125 -35.835938 98.875 -27.800781 94.71875 -20.71875 C 90.5625 -13.644531 84.882812 -8.085938 77.6875 -4.046875 C 70.5 -0.00390625 62.300781 2.015625 53.09375 2.015625 Z M 79.046875 -44.671875 C 79.046875 -49.492188 78.003906 -53.984375 75.921875 -58.140625 C 73.847656 -62.304688 70.898438 -65.648438 67.078125 -68.171875 C 63.253906 -70.703125 58.703125 -71.96875 53.421875 -71.96875 C 48.140625 -71.96875 43.5625 -70.675781 39.6875 -68.09375 C 35.8125 -65.507812 32.832031 -62.164062 30.75 -58.0625 C 28.675781 -53.957031 27.640625 -49.492188 27.640625 -44.671875 C 27.640625 -39.835938 28.675781 -35.367188 30.75 -31.265625 C 32.832031 -27.160156 35.8125 -23.84375 39.6875 -21.3125 C 43.5625 -18.789062 48.140625 -17.53125 53.421875 -17.53125 C 58.703125 -17.53125 63.253906 -18.789062 67.078125 -21.3125 C 70.898438 -23.84375 73.847656 -27.160156 75.921875 -31.265625 C 78.003906 -35.367188 79.046875 -39.835938 79.046875 -44.671875 Z M 79.046875 -44.671875 "/></g></g></g><g fill="#000000" fill-opacity="1"><g transform="translate(510.183503, 131.476807)"><g><path d="M 59.328125 -17.359375 C 64.722656 -17.472656 69.273438 -18.789062 72.984375 -21.3125 C 76.691406 -23.84375 79.5 -27.1875 81.40625 -31.34375 C 83.320312 -35.507812 84.28125 -39.953125 84.28125 -44.671875 C 84.28125 -49.390625 83.320312 -53.828125 81.40625 -57.984375 C 79.5 -62.140625 76.773438 -65.535156 73.234375 -68.171875 C 69.691406 -70.816406 65.394531 -72.140625 60.34375 -72.140625 C 55.726562 -72.140625 51.507812 -70.929688 47.6875 -68.515625 C 43.875 -66.097656 40.84375 -62.8125 38.59375 -58.65625 C 36.34375 -54.5 35.21875 -49.722656 35.21875 -44.328125 C 35.21875 -39.722656 36.144531 -35.367188 38 -31.265625 C 39.851562 -27.160156 42.578125 -23.84375 46.171875 -21.3125 C 49.773438 -18.789062 54.160156 -17.472656 59.328125 -17.359375 Z M 25.78125 37.078125 C 22.863281 37.078125 20.335938 36.007812 18.203125 33.875 C 16.066406 31.738281 15 29.210938 15 26.296875 L 15 -80.90625 C 15 -83.601562 15.925781 -85.878906 17.78125 -87.734375 C 19.632812 -89.585938 21.910156 -90.515625 24.609375 -90.515625 C 27.078125 -90.515625 29.238281 -89.671875 31.09375 -87.984375 C 32.945312 -86.296875 33.929688 -84.21875 34.046875 -81.75 L 34.390625 -76.859375 C 37.984375 -80.898438 42.28125 -84.351562 47.28125 -87.21875 C 52.28125 -90.082031 57.867188 -91.515625 64.046875 -91.515625 C 69.554688 -91.515625 74.8125 -90.332031 79.8125 -87.96875 C 84.8125 -85.613281 89.304688 -82.300781 93.296875 -78.03125 C 97.285156 -73.757812 100.429688 -68.703125 102.734375 -62.859375 C 105.035156 -57.023438 106.1875 -50.566406 106.1875 -43.484375 C 106.1875 -34.273438 104.21875 -26.238281 100.28125 -19.375 C 96.351562 -12.519531 91.128906 -7.238281 84.609375 -3.53125 C 78.085938 0.164062 71.007812 2.015625 63.375 2.015625 C 57.53125 2.015625 52.5 0.976562 48.28125 -1.09375 C 44.070312 -3.175781 40.171875 -6.125 36.578125 -9.9375 L 36.578125 26.296875 C 36.578125 29.210938 35.507812 31.738281 33.375 33.875 C 31.238281 36.007812 28.707031 37.078125 25.78125 37.078125 Z M 25.78125 37.078125 "/></g></g></g><g clip-path="url(#e8480a4711)"><g fill="#000000" fill-opacity="1"><g transform="translate(619.227959, 131.476807)"><g><path d="M 72.140625 -83.265625 C 73.929688 -87.421875 77.078125 -89.5 81.578125 -89.5 C 84.492188 -89.5 86.90625 -88.457031 88.8125 -86.375 C 90.726562 -84.300781 91.6875 -81.914062 91.6875 -79.21875 C 91.6875 -78.539062 91.628906 -77.835938 91.515625 -77.109375 C 91.410156 -76.378906 91.1875 -75.675781 90.84375 -75 L 50.390625 14.328125 C 46.679688 22.523438 42.1875 28.535156 36.90625 32.359375 C 31.625 36.179688 25.953125 38.09375 19.890625 38.09375 C 17.972656 38.09375 15.523438 37.894531 12.546875 37.5 C 9.578125 37.101562 6.941406 36.175781 4.640625 34.71875 C 2.335938 33.257812 1.1875 30.898438 1.1875 27.640625 C 1.1875 24.828125 2.140625 22.578125 4.046875 20.890625 C 5.953125 19.210938 8.085938 18.375 10.453125 18.375 C 11.460938 18.375 12.472656 18.484375 13.484375 18.703125 C 14.492188 18.929688 15.617188 19.046875 16.859375 19.046875 C 20.453125 19.046875 23.34375 18.226562 25.53125 16.59375 C 27.726562 14.96875 29.613281 12.414062 31.1875 8.9375 L 35.5625 -0.671875 L 6.90625 -75.34375 C 6.457031 -76.351562 6.234375 -77.585938 6.234375 -79.046875 C 6.234375 -81.742188 7.21875 -84.160156 9.1875 -86.296875 C 11.15625 -88.429688 13.65625 -89.5 16.6875 -89.5 C 18.9375 -89.5 20.929688 -88.878906 22.671875 -87.640625 C 24.410156 -86.410156 25.675781 -84.726562 26.46875 -82.59375 L 47.1875 -25.109375 Z M 72.140625 -83.265625 "/></g></g></g></g></g></g></g><g clip-path="url(#b75b67d72d)"><g transform="matrix(1, 0, 0, 1, 0, 5)"><g clip-path="url(#5940e9a498)"><path fill="#000000" d="M 71.511719 207.359375 C 70.015625 206.808594 68.757812 206.203125 68.757812 206.03125 C 68.757812 205.925781 67.925781 204.917969 66.90625 203.792969 C 65.886719 202.667969 64.914062 201.453125 64.746094 201.097656 C 64.578125 200.742188 63.9375 199.714844 63.320312 198.816406 C 62.707031 197.914062 62.203125 197.082031 62.203125 196.960938 C 62.203125 196.839844 61.660156 196.082031 60.996094 195.28125 C 60.335938 194.476562 59.289062 192.804688 58.671875 191.566406 C 58.054688 190.324219 57.125 188.753906 56.597656 188.078125 C 56.074219 187.398438 55.644531 186.765625 55.644531 186.667969 C 55.644531 186.574219 55.421875 186.253906 55.148438 185.957031 C 54.875 185.664062 54.152344 184.492188 53.542969 183.351562 C 52.933594 182.210938 52.113281 180.871094 51.722656 180.371094 C 51.332031 179.871094 50.5 178.53125 49.875 177.390625 C 49.253906 176.253906 48.523438 175.011719 48.257812 174.632812 C 47.996094 174.253906 47.777344 173.828125 47.777344 173.683594 C 47.777344 173.542969 47.246094 172.628906 46.59375 171.652344 C 42.855469 166.046875 42.875 162.023438 46.667969 158.425781 C 50.78125 154.519531 55.425781 154.242188 59.28125 157.667969 C 60.527344 158.773438 64.039062 163.632812 64.039062 164.25 C 64.039062 164.640625 64.558594 165.402344 65.472656 166.351562 C 66.273438 167.183594 67.199219 168.488281 67.566406 169.3125 C 67.933594 170.125 68.617188 171.167969 69.089844 171.628906 C 69.5625 172.09375 70.53125 173.253906 71.238281 174.214844 C 73.421875 177.175781 74.476562 177.042969 77.214844 173.445312 C 79.601562 170.3125 83.339844 164.910156 84.320312 163.167969 C 84.734375 162.441406 85.316406 161.585938 85.617188 161.261719 C 86.269531 160.566406 87.019531 159.359375 88.285156 156.988281 C 89.378906 154.949219 90.941406 152.488281 91.28125 152.28125 C 91.410156 152.203125 91.835938 151.523438 92.226562 150.773438 C 92.617188 150.023438 93.277344 148.980469 93.695312 148.457031 C 94.117188 147.929688 94.460938 147.378906 94.460938 147.230469 C 94.460938 146.941406 95.628906 145.136719 97.328125 142.804688 C 97.898438 142.023438 98.371094 141.242188 98.378906 141.078125 C 98.386719 140.910156 98.660156 140.441406 98.984375 140.039062 C 99.628906 139.230469 100 138.671875 100.65625 137.496094 C 100.894531 137.066406 101.425781 136.335938 101.839844 135.867188 C 102.25 135.398438 102.589844 134.875 102.589844 134.699219 C 102.589844 134.351562 105.222656 130.222656 105.859375 129.570312 C 106.078125 129.34375 106.261719 129.105469 106.261719 129.035156 C 106.261719 128.964844 106.910156 127.933594 107.703125 126.742188 C 108.496094 125.550781 109.144531 124.4375 109.144531 124.265625 C 109.144531 124.097656 109.332031 123.804688 109.558594 123.617188 C 109.785156 123.433594 110.199219 122.863281 110.480469 122.355469 C 110.761719 121.847656 111.289062 120.964844 111.648438 120.394531 C 112.011719 119.824219 112.539062 118.894531 112.824219 118.324219 C 113.109375 117.753906 113.8125 116.644531 114.390625 115.863281 C 114.96875 115.078125 115.4375 114.238281 115.4375 114 C 115.4375 113.757812 115.570312 113.480469 115.726562 113.382812 C 115.886719 113.285156 116.183594 112.84375 116.390625 112.398438 C 116.59375 111.953125 117.160156 110.886719 117.648438 110.03125 C 119.671875 106.484375 122.519531 100.519531 122.96875 98.890625 C 123.125 98.320312 123.503906 97.03125 123.804688 96.023438 C 124.789062 92.75 125.0625 82.472656 124.339844 75.722656 C 123.828125 70.90625 121.523438 63.722656 119.78125 61.515625 C 119.269531 60.863281 118.847656 60.164062 118.847656 59.960938 C 118.847656 59.617188 118.304688 58.730469 116.703125 56.484375 C 116.371094 56.011719 116.023438 55.566406 115.9375 55.496094 C 115.667969 55.277344 113 52.070312 112.027344 50.792969 C 111.019531 49.476562 107.464844 46.148438 106 45.15625 C 105.492188 44.8125 104.726562 44.207031 104.292969 43.8125 C 102.867188 42.503906 97.222656 38.664062 96.722656 38.660156 C 96.453125 38.65625 95.832031 38.308594 95.339844 37.882812 C 94.851562 37.457031 94.128906 37.046875 93.734375 36.964844 C 93.339844 36.886719 91.421875 36.316406 89.476562 35.695312 C 82.660156 33.523438 72.109375 32.414062 68.492188 33.488281 C 67.992188 33.636719 66.515625 33.851562 65.21875 33.964844 C 62.621094 34.191406 57.535156 35.449219 55.046875 36.484375 C 44.164062 41.011719 36.363281 38.554688 36.835938 30.753906 C 37.171875 25.15625 40.6875 21.515625 49.089844 18.0625 C 50.027344 17.675781 51.128906 17.199219 51.535156 17 C 51.945312 16.796875 52.417969 16.636719 52.585938 16.636719 C 52.753906 16.640625 53.660156 16.414062 54.597656 16.132812 C 55.535156 15.851562 56.925781 15.4375 57.6875 15.214844 C 58.988281 14.828125 62.230469 14.320312 64.300781 14.175781 C 73.191406 13.558594 75.144531 13.542969 80.132812 14.046875 C 84.53125 14.488281 85.988281 14.765625 89.605469 15.835938 C 90.039062 15.964844 91.042969 16.207031 91.835938 16.371094 C 92.628906 16.539062 94.003906 16.898438 94.886719 17.171875 C 95.769531 17.449219 96.695312 17.671875 96.9375 17.671875 C 97.179688 17.671875 97.875 17.996094 98.476562 18.390625 C 99.078125 18.789062 99.867188 19.238281 100.230469 19.394531 C 101.992188 20.152344 106.667969 22.425781 106.785156 22.582031 C 106.855469 22.675781 107.691406 23.15625 108.636719 23.644531 C 109.582031 24.136719 110.824219 24.863281 111.390625 25.261719 C 111.957031 25.664062 113.679688 26.792969 115.210938 27.777344 C 116.742188 28.761719 118.859375 30.359375 119.914062 31.324219 C 122.597656 33.785156 127.355469 38.621094 128.078125 39.621094 C 130.199219 42.550781 130.914062 43.597656 130.914062 43.785156 C 130.914062 43.902344 131.5625 44.773438 132.355469 45.722656 C 133.148438 46.675781 133.796875 47.566406 133.796875 47.710938 C 133.796875 47.855469 134.480469 49.109375 135.320312 50.503906 C 136.910156 53.148438 137.46875 54.253906 138.636719 57.050781 C 139.019531 57.976562 139.507812 59.101562 139.714844 59.550781 C 139.921875 60 140.089844 60.449219 140.089844 60.550781 C 140.089844 60.652344 140.441406 61.457031 140.871094 62.34375 C 141.882812 64.445312 142.917969 68.859375 143.789062 74.796875 C 144.285156 78.183594 144.351562 89.132812 143.894531 92.027344 C 143.1875 96.507812 143.101562 96.929688 141.945312 101.613281 C 141.429688 103.710938 141.253906 104.265625 140.046875 107.570312 C 139.761719 108.355469 139.472656 109.265625 139.40625 109.597656 C 139.246094 110.40625 137.023438 114.558594 136.394531 115.230469 C 136.121094 115.523438 135.894531 115.933594 135.894531 116.136719 C 135.890625 116.574219 133.273438 121.75 132.292969 123.246094 C 131.460938 124.523438 130.613281 125.75 130.328125 126.09375 C 129.675781 126.890625 128.75 128.382812 127.910156 129.988281 C 127.386719 130.992188 126.492188 132.421875 125.921875 133.167969 C 125.347656 133.914062 124.878906 134.625 124.878906 134.746094 C 124.878906 134.871094 124.699219 135.117188 124.476562 135.300781 C 124.082031 135.625 121.425781 139.425781 120.722656 140.675781 C 120.527344 141.023438 120.15625 141.515625 119.898438 141.769531 C 119.484375 142.179688 118.988281 142.9375 116.5625 146.910156 C 116.246094 147.429688 115.863281 148.03125 115.714844 148.246094 C 115.566406 148.460938 115.070312 149.21875 114.617188 149.929688 C 114.164062 150.640625 113.457031 151.710938 113.042969 152.304688 C 112.628906 152.898438 112.292969 153.453125 112.292969 153.539062 C 112.292969 153.699219 112.03125 154.121094 109.539062 157.960938 C 108.800781 159.101562 107.976562 160.558594 107.703125 161.199219 C 107.433594 161.839844 107 162.605469 106.738281 162.902344 C 106.476562 163.195312 106.261719 163.527344 106.261719 163.636719 C 106.261719 163.746094 105.867188 164.289062 105.390625 164.84375 C 104.910156 165.398438 104.1875 166.496094 103.78125 167.285156 C 103.375 168.078125 102.9375 168.792969 102.800781 168.871094 C 102.667969 168.953125 102.269531 169.625 101.914062 170.367188 C 101.558594 171.105469 100.828125 172.257812 100.289062 172.921875 C 98.449219 175.191406 97.601562 176.414062 96.800781 177.9375 C 96.015625 179.441406 95.828125 179.75 94.394531 181.878906 C 93.996094 182.46875 93.671875 183.027344 93.671875 183.117188 C 93.671875 183.210938 93.140625 184.019531 92.492188 184.917969 C 91.84375 185.816406 91.3125 186.625 91.3125 186.714844 C 91.3125 186.804688 90.851562 187.546875 90.289062 188.367188 C 89.722656 189.1875 89.074219 190.257812 88.847656 190.75 C 88.617188 191.238281 87.660156 193.039062 86.722656 194.75 C 85.78125 196.460938 84.777344 198.324219 84.488281 198.894531 C 83.304688 201.222656 78.710938 206.320312 77.257812 206.921875 C 76.230469 207.34375 72.289062 207.648438 71.511719 207.359375 M 32.527344 142.140625 C 29.101562 141.621094 28.3125 141.175781 26.140625 138.53125 C 25.09375 137.253906 23.648438 135.136719 23.648438 134.875 C 23.648438 134.800781 23.296875 134.230469 22.863281 133.609375 C 22.429688 132.988281 22.078125 132.417969 22.078125 132.34375 C 22.078125 132.265625 21.707031 131.589844 21.257812 130.835938 C 20.804688 130.082031 19.964844 128.589844 19.390625 127.519531 C 18.816406 126.453125 17.890625 124.90625 17.328125 124.089844 C 16.765625 123.273438 16.308594 122.5 16.308594 122.375 C 16.308594 122.25 16.085938 121.871094 15.8125 121.53125 C 15.183594 120.742188 14.625 119.746094 12.914062 116.378906 C 12.152344 114.882812 11.183594 112.980469 10.761719 112.15625 C 9.796875 110.257812 6.796875 101.695312 6.117188 98.890625 C 5.980469 98.320312 5.625 96.863281 5.328125 95.652344 C 4.15625 90.855469 3.871094 76.824219 4.871094 72.855469 C 5.105469 71.929688 5.523438 69.945312 5.800781 68.449219 C 6.574219 64.292969 7.058594 62.324219 7.46875 61.667969 C 7.675781 61.335938 8.042969 60.34375 8.285156 59.457031 C 8.71875 57.863281 10.210938 54.34375 12.042969 50.574219 C 13.769531 47.03125 17.183594 43.179688 19.523438 42.144531 C 24.289062 40.03125 31.902344 43.046875 32.722656 47.375 C 33.191406 49.835938 32.707031 52.925781 31.46875 55.367188 C 30.816406 56.648438 29.957031 58.398438 29.558594 59.253906 C 29.15625 60.109375 28.476562 61.507812 28.042969 62.363281 C 27.613281 63.21875 26.820312 65.148438 26.285156 66.652344 C 25.753906 68.160156 25.238281 69.515625 25.140625 69.667969 C 25.046875 69.820312 24.855469 70.6875 24.71875 71.59375 C 24.582031 72.5 24.214844 73.882812 23.90625 74.667969 C 22.894531 77.238281 22.921875 85.195312 23.96875 92.027344 C 24.246094 93.84375 26.113281 99.574219 26.914062 101.074219 C 27.113281 101.441406 27.535156 102.382812 27.855469 103.167969 C 28.628906 105.058594 32.035156 111.789062 32.988281 113.316406 C 36.992188 119.726562 38.960938 122.042969 40.960938 122.707031 C 42.960938 123.371094 62.867188 123.066406 64.230469 122.351562 C 65.554688 121.652344 67.972656 119.269531 67.972656 118.660156 C 67.972656 118.589844 68.621094 117.574219 69.414062 116.402344 C 70.207031 115.230469 70.855469 114.164062 70.855469 114.03125 C 70.855469 113.902344 71.386719 112.949219 72.035156 111.917969 C 72.683594 110.890625 73.214844 109.910156 73.214844 109.746094 C 73.214844 109.582031 73.40625 109.292969 73.640625 109.101562 C 75.5 107.574219 76.792969 104.019531 76.542969 101.101562 C 76.03125 95.019531 73.414062 93.554688 62.855469 93.449219 C 56.25 93.382812 50.132812 92.824219 48.84375 92.164062 C 41.617188 88.472656 40.273438 80 45.175781 69.054688 C 45.644531 68.007812 46.253906 67.089844 47.933594 64.882812 C 49.023438 63.453125 56.914062 56.015625 57.339844 56.015625 C 57.527344 56.015625 57.832031 55.832031 58.019531 55.609375 C 58.480469 55.0625 60.265625 54.222656 61.546875 53.949219 C 62.125 53.828125 63.835938 53.292969 65.347656 52.765625 L 68.101562 51.804688 L 73.480469 51.773438 L 78.855469 51.738281 L 82.421875 52.847656 C 87.972656 54.570312 92.105469 57 96.113281 60.898438 C 101.210938 65.859375 104.234375 71.875 105.191406 78.941406 C 106.082031 85.511719 106.015625 87.878906 104.832031 91.898438 C 104.582031 92.75 104.25 93.917969 104.09375 94.488281 C 103.9375 95.058594 103.417969 96.371094 102.9375 97.40625 C 102.457031 98.445312 102.066406 99.449219 102.066406 99.644531 C 102.066406 99.835938 101.898438 100.128906 101.695312 100.296875 C 101.492188 100.464844 101.136719 100.972656 100.902344 101.429688 C 100.667969 101.886719 100.128906 102.84375 99.703125 103.554688 C 99.28125 104.269531 98.738281 105.257812 98.5 105.757812 C 98.265625 106.257812 97.988281 106.722656 97.886719 106.792969 C 97.640625 106.96875 96.03125 109.308594 96.03125 109.496094 C 96.03125 109.859375 93.292969 114.503906 92.726562 115.097656 C 92.382812 115.460938 92.097656 115.871094 92.097656 116.007812 C 92.097656 116.144531 91.691406 116.855469 91.191406 117.585938 C 90.316406 118.875 89.855469 119.675781 87.792969 123.503906 C 86.769531 125.402344 86.0625 126.53125 84.429688 128.882812 C 83.886719 129.65625 83.445312 130.382812 83.445312 130.492188 C 83.445312 130.601562 82.917969 131.46875 82.277344 132.425781 C 81.632812 133.378906 80.992188 134.464844 80.847656 134.839844 C 79.441406 138.492188 76.105469 141.6875 73.214844 142.152344 C 70.894531 142.523438 35.003906 142.515625 32.527344 142.140625 " fill-opacity="1" fill-rule="evenodd"/></g></g></g></g></g></svg>